<?xml version="1.0" encoding="utf-8"?>
<!-- Svg Vector Icons : http://www.onlinewebfonts.com/icon -->
<!DOCTYPE svg PUBLIC "-//W3C//DTD SVG 1.1//EN" "http://www.w3.org/Graphics/SVG/1.1/DTD/svg11.dtd">
<svg version="1.1" xmlns="http://www.w3.org/2000/svg" xmlns:xlink="http://www.w3.org/1999/xlink" x="0px" y="0px" viewBox="0 0 1000 1000" enable-background="new 0 0 1000 1000" xml:space="preserve">
<metadata> Svg Vector Icons : http://www.onlinewebfonts.com/icon </metadata>
<g><path d="M442.1,377.5h-61.7v61.3h-61.7v-61.3h-61.7v-61.2h61.7V255h61.7v61.3h61.7L442.1,377.5L442.1,377.5L442.1,377.5z M588.6,530.5l269.7,274.1c14.9,22.7-6.3,40.7-15.6,51.2C754.3,938.8,635.2,990,503.9,990C231.1,990,10,770.6,10,500C10,229.4,231.1,10,503.9,10c145.7,0,293.2,78.5,366.6,162.5L870,173c3.6,1.4,24.5,36.1,3.1,57.9L588.6,530.5L588.6,530.5z M503.9,532.5l310.5-329.3c-78.5-81-188.3-132-310.5-132c-238.7,0-432.1,192-432.1,428.8c0,236.8,193.5,428.8,432.1,428.8c109.1,0,208.4-40.5,284.4-106.7L503.9,532.5L503.9,532.5z M897.4,617.4c51.2,0,92.6-41.1,92.6-91.9c0-50.7-41.4-91.9-92.6-91.9c-51.2,0-92.6,41.2-92.6,91.9C804.8,576.3,846.2,617.4,897.4,617.4z"/></g>
</svg>